<mxfile host="app.diagrams.net" modified="2022-01-31T12:42:18.764Z" agent="5.0 (Windows NT 10.0; Win64; x64) AppleWebKit/537.36 (KHTML, like Gecko) Chrome/97.0.4692.99 Safari/537.36" etag="CUv0u0YuRhIsEbeodq-3" version="16.4.7" type="github">
  <diagram id="DJ_Ps_fzaINZI8N2LzJv" name="Page-1">
    <mxGraphModel dx="2557" dy="2081" grid="1" gridSize="10" guides="1" tooltips="1" connect="1" arrows="1" fold="1" page="1" pageScale="1" pageWidth="827" pageHeight="1169" math="0" shadow="0">
      <root>
        <mxCell id="0" />
        <mxCell id="1" parent="0" />
        <mxCell id="MDOAliKva9BKkH3c2uKR-26" style="edgeStyle=orthogonalEdgeStyle;rounded=0;orthogonalLoop=1;jettySize=auto;html=1;exitX=0.5;exitY=0.5;exitDx=0;exitDy=0;exitPerimeter=0;entryX=0;entryY=0.5;entryDx=0;entryDy=0;" parent="1" source="MDOAliKva9BKkH3c2uKR-2" target="MDOAliKva9BKkH3c2uKR-17" edge="1">
          <mxGeometry relative="1" as="geometry" />
        </mxCell>
        <mxCell id="MDOAliKva9BKkH3c2uKR-2" value="User KPPBC/Kanwil" style="shape=umlActor;verticalLabelPosition=bottom;verticalAlign=top;html=1;outlineConnect=0;" parent="1" vertex="1">
          <mxGeometry x="-740" y="100" width="30" height="60" as="geometry" />
        </mxCell>
        <mxCell id="MDOAliKva9BKkH3c2uKR-31" style="edgeStyle=orthogonalEdgeStyle;rounded=0;orthogonalLoop=1;jettySize=auto;html=1;exitX=1;exitY=0.5;exitDx=0;exitDy=0;entryX=0.5;entryY=1;entryDx=0;entryDy=0;" parent="1" source="MDOAliKva9BKkH3c2uKR-4" target="MDOAliKva9BKkH3c2uKR-25" edge="1">
          <mxGeometry relative="1" as="geometry" />
        </mxCell>
        <mxCell id="MDOAliKva9BKkH3c2uKR-4" value="APP Penindakan" style="whiteSpace=wrap;html=1;rounded=1;" parent="1" vertex="1">
          <mxGeometry x="200" y="95" width="120" height="60" as="geometry" />
        </mxCell>
        <mxCell id="MDOAliKva9BKkH3c2uKR-30" style="edgeStyle=orthogonalEdgeStyle;rounded=0;orthogonalLoop=1;jettySize=auto;html=1;exitX=1;exitY=0.5;exitDx=0;exitDy=0;entryX=0;entryY=0.5;entryDx=0;entryDy=0;" parent="1" source="MDOAliKva9BKkH3c2uKR-7" target="MDOAliKva9BKkH3c2uKR-4" edge="1">
          <mxGeometry relative="1" as="geometry" />
        </mxCell>
        <mxCell id="MDOAliKva9BKkH3c2uKR-7" value="Input Data SBP dan Pelangga" style="shape=step;perimeter=stepPerimeter;whiteSpace=wrap;html=1;fixedSize=1;" parent="1" vertex="1">
          <mxGeometry x="-40" y="85" width="150" height="80" as="geometry" />
        </mxCell>
        <mxCell id="MDOAliKva9BKkH3c2uKR-11" value="Kondisi Saat ini" style="text;html=1;strokeColor=none;fillColor=none;align=center;verticalAlign=middle;whiteSpace=wrap;rounded=0;" parent="1" vertex="1">
          <mxGeometry x="-800" y="-80" width="190" height="30" as="geometry" />
        </mxCell>
        <mxCell id="MDOAliKva9BKkH3c2uKR-12" value="Kondisi yang diharapkan" style="text;html=1;strokeColor=none;fillColor=none;align=center;verticalAlign=middle;whiteSpace=wrap;rounded=0;" parent="1" vertex="1">
          <mxGeometry x="-810" y="300" width="190" height="30" as="geometry" />
        </mxCell>
        <mxCell id="MDOAliKva9BKkH3c2uKR-49" style="edgeStyle=orthogonalEdgeStyle;rounded=0;orthogonalLoop=1;jettySize=auto;html=1;entryX=0;entryY=0;entryDx=0;entryDy=27.5;entryPerimeter=0;" parent="1" source="MDOAliKva9BKkH3c2uKR-13" target="MDOAliKva9BKkH3c2uKR-42" edge="1">
          <mxGeometry relative="1" as="geometry" />
        </mxCell>
        <mxCell id="MDOAliKva9BKkH3c2uKR-13" value="User KPPBC/Kanwil" style="shape=umlActor;verticalLabelPosition=bottom;verticalAlign=top;html=1;outlineConnect=0;" parent="1" vertex="1">
          <mxGeometry x="-770" y="390" width="30" height="60" as="geometry" />
        </mxCell>
        <mxCell id="MDOAliKva9BKkH3c2uKR-51" style="edgeStyle=orthogonalEdgeStyle;rounded=0;orthogonalLoop=1;jettySize=auto;html=1;exitX=1;exitY=0.5;exitDx=0;exitDy=0;entryX=0;entryY=0.5;entryDx=0;entryDy=0;" parent="1" source="MDOAliKva9BKkH3c2uKR-16" target="MDOAliKva9BKkH3c2uKR-43" edge="1">
          <mxGeometry relative="1" as="geometry" />
        </mxCell>
        <mxCell id="MDOAliKva9BKkH3c2uKR-59" style="edgeStyle=orthogonalEdgeStyle;rounded=0;orthogonalLoop=1;jettySize=auto;html=1;exitX=0.5;exitY=1;exitDx=0;exitDy=0;entryX=0;entryY=1;entryDx=0;entryDy=-15;entryPerimeter=0;" parent="1" source="MDOAliKva9BKkH3c2uKR-16" target="MDOAliKva9BKkH3c2uKR-58" edge="1">
          <mxGeometry relative="1" as="geometry" />
        </mxCell>
        <mxCell id="50Y8gKljsSLMcJeQ7fWH-2" value="" style="edgeStyle=orthogonalEdgeStyle;rounded=0;orthogonalLoop=1;jettySize=auto;html=1;" edge="1" parent="1" source="MDOAliKva9BKkH3c2uKR-16" target="50Y8gKljsSLMcJeQ7fWH-1">
          <mxGeometry relative="1" as="geometry" />
        </mxCell>
        <mxCell id="MDOAliKva9BKkH3c2uKR-16" value="Draft STI-LPTI/LPPI/LKAI/NHI dll" style="rounded=1;whiteSpace=wrap;html=1;" parent="1" vertex="1">
          <mxGeometry x="-540" y="380" width="120" height="60" as="geometry" />
        </mxCell>
        <mxCell id="MDOAliKva9BKkH3c2uKR-27" style="edgeStyle=orthogonalEdgeStyle;rounded=0;orthogonalLoop=1;jettySize=auto;html=1;exitX=1;exitY=0.5;exitDx=0;exitDy=0;entryX=0;entryY=0.5;entryDx=0;entryDy=0;" parent="1" source="MDOAliKva9BKkH3c2uKR-17" target="MDOAliKva9BKkH3c2uKR-21" edge="1">
          <mxGeometry relative="1" as="geometry" />
        </mxCell>
        <mxCell id="MDOAliKva9BKkH3c2uKR-32" style="edgeStyle=orthogonalEdgeStyle;rounded=0;orthogonalLoop=1;jettySize=auto;html=1;exitX=0.5;exitY=0;exitDx=0;exitDy=0;entryX=0;entryY=0.5;entryDx=0;entryDy=0;" parent="1" source="MDOAliKva9BKkH3c2uKR-17" target="MDOAliKva9BKkH3c2uKR-33" edge="1">
          <mxGeometry relative="1" as="geometry">
            <mxPoint x="-610" y="10.000000000000227" as="targetPoint" />
            <Array as="points">
              <mxPoint x="-610" y="-50" />
            </Array>
          </mxGeometry>
        </mxCell>
        <mxCell id="MDOAliKva9BKkH3c2uKR-17" value="Draft STI-LPTI/LPPI/LKAI/NHI dll" style="rounded=1;whiteSpace=wrap;html=1;" parent="1" vertex="1">
          <mxGeometry x="-670" y="90" width="120" height="70" as="geometry" />
        </mxCell>
        <mxCell id="MDOAliKva9BKkH3c2uKR-28" style="edgeStyle=orthogonalEdgeStyle;rounded=0;orthogonalLoop=1;jettySize=auto;html=1;exitX=1;exitY=0.5;exitDx=0;exitDy=0;entryX=0;entryY=0.5;entryDx=0;entryDy=0;" parent="1" source="MDOAliKva9BKkH3c2uKR-18" target="MDOAliKva9BKkH3c2uKR-19" edge="1">
          <mxGeometry relative="1" as="geometry" />
        </mxCell>
        <mxCell id="MDOAliKva9BKkH3c2uKR-34" style="edgeStyle=orthogonalEdgeStyle;rounded=0;orthogonalLoop=1;jettySize=auto;html=1;exitX=0.5;exitY=0;exitDx=0;exitDy=0;entryX=0.5;entryY=1;entryDx=0;entryDy=0;" parent="1" source="MDOAliKva9BKkH3c2uKR-18" target="MDOAliKva9BKkH3c2uKR-33" edge="1">
          <mxGeometry relative="1" as="geometry" />
        </mxCell>
        <mxCell id="MDOAliKva9BKkH3c2uKR-18" value="Draft LI-1/LAPP/NPI/&lt;br&gt;MPP/SBP/LPHP/LP" style="rounded=1;whiteSpace=wrap;html=1;" parent="1" vertex="1">
          <mxGeometry x="-390" y="60" width="190" height="130" as="geometry" />
        </mxCell>
        <mxCell id="MDOAliKva9BKkH3c2uKR-20" style="edgeStyle=orthogonalEdgeStyle;rounded=0;orthogonalLoop=1;jettySize=auto;html=1;exitX=1;exitY=0.5;exitDx=0;exitDy=0;entryX=0;entryY=0.5;entryDx=0;entryDy=0;" parent="1" source="MDOAliKva9BKkH3c2uKR-19" target="MDOAliKva9BKkH3c2uKR-7" edge="1">
          <mxGeometry relative="1" as="geometry" />
        </mxCell>
        <mxCell id="MDOAliKva9BKkH3c2uKR-19" value="Penindakan?" style="rhombus;whiteSpace=wrap;html=1;" parent="1" vertex="1">
          <mxGeometry x="-160" y="85" width="80" height="80" as="geometry" />
        </mxCell>
        <mxCell id="MDOAliKva9BKkH3c2uKR-23" style="edgeStyle=orthogonalEdgeStyle;rounded=0;orthogonalLoop=1;jettySize=auto;html=1;exitX=1;exitY=0.5;exitDx=0;exitDy=0;entryX=0;entryY=0.5;entryDx=0;entryDy=0;" parent="1" source="MDOAliKva9BKkH3c2uKR-21" target="MDOAliKva9BKkH3c2uKR-18" edge="1">
          <mxGeometry relative="1" as="geometry" />
        </mxCell>
        <mxCell id="MDOAliKva9BKkH3c2uKR-21" value="NHI/NI" style="rhombus;whiteSpace=wrap;html=1;" parent="1" vertex="1">
          <mxGeometry x="-510" y="85" width="80" height="80" as="geometry" />
        </mxCell>
        <mxCell id="MDOAliKva9BKkH3c2uKR-25" value="Selesai" style="ellipse;whiteSpace=wrap;html=1;aspect=fixed;" parent="1" vertex="1">
          <mxGeometry x="310" y="-60" width="80" height="80" as="geometry" />
        </mxCell>
        <mxCell id="MDOAliKva9BKkH3c2uKR-73" style="edgeStyle=orthogonalEdgeStyle;rounded=0;orthogonalLoop=1;jettySize=auto;html=1;exitX=0.5;exitY=0;exitDx=0;exitDy=0;entryX=0.5;entryY=1;entryDx=0;entryDy=0;" parent="1" source="MDOAliKva9BKkH3c2uKR-33" target="MDOAliKva9BKkH3c2uKR-72" edge="1">
          <mxGeometry relative="1" as="geometry" />
        </mxCell>
        <mxCell id="MDOAliKva9BKkH3c2uKR-33" value="Drive/Excell/DB" style="shape=parallelogram;perimeter=parallelogramPerimeter;whiteSpace=wrap;html=1;fixedSize=1;" parent="1" vertex="1">
          <mxGeometry x="-355" y="-80" width="120" height="60" as="geometry" />
        </mxCell>
        <mxCell id="MDOAliKva9BKkH3c2uKR-35" value="Ya" style="text;html=1;strokeColor=none;fillColor=none;align=center;verticalAlign=middle;whiteSpace=wrap;rounded=0;" parent="1" vertex="1">
          <mxGeometry x="-450" y="90" width="60" height="30" as="geometry" />
        </mxCell>
        <mxCell id="MDOAliKva9BKkH3c2uKR-36" value="Ya" style="text;html=1;strokeColor=none;fillColor=none;align=center;verticalAlign=middle;whiteSpace=wrap;rounded=0;" parent="1" vertex="1">
          <mxGeometry x="-90" y="85" width="60" height="30" as="geometry" />
        </mxCell>
        <mxCell id="MDOAliKva9BKkH3c2uKR-38" style="edgeStyle=orthogonalEdgeStyle;rounded=0;orthogonalLoop=1;jettySize=auto;html=1;entryX=1;entryY=0.5;entryDx=0;entryDy=0;" parent="1" source="MDOAliKva9BKkH3c2uKR-37" target="MDOAliKva9BKkH3c2uKR-33" edge="1">
          <mxGeometry relative="1" as="geometry" />
        </mxCell>
        <mxCell id="MDOAliKva9BKkH3c2uKR-37" value="Penyidikan" style="rounded=1;whiteSpace=wrap;html=1;" parent="1" vertex="1">
          <mxGeometry x="130" y="-80" width="120" height="60" as="geometry" />
        </mxCell>
        <mxCell id="MDOAliKva9BKkH3c2uKR-50" style="edgeStyle=orthogonalEdgeStyle;rounded=0;orthogonalLoop=1;jettySize=auto;html=1;exitX=1;exitY=0.5;exitDx=0;exitDy=0;exitPerimeter=0;entryX=0;entryY=0.5;entryDx=0;entryDy=0;" parent="1" source="MDOAliKva9BKkH3c2uKR-42" target="MDOAliKva9BKkH3c2uKR-16" edge="1">
          <mxGeometry relative="1" as="geometry" />
        </mxCell>
        <mxCell id="MDOAliKva9BKkH3c2uKR-42" value="SIOSS" style="shape=cylinder3;whiteSpace=wrap;html=1;boundedLbl=1;backgroundOutline=1;size=15;" parent="1" vertex="1">
          <mxGeometry x="-650" y="370" width="60" height="80" as="geometry" />
        </mxCell>
        <mxCell id="MDOAliKva9BKkH3c2uKR-52" style="edgeStyle=orthogonalEdgeStyle;rounded=0;orthogonalLoop=1;jettySize=auto;html=1;exitX=1;exitY=0.5;exitDx=0;exitDy=0;entryX=0;entryY=0.5;entryDx=0;entryDy=0;" parent="1" source="MDOAliKva9BKkH3c2uKR-43" target="MDOAliKva9BKkH3c2uKR-44" edge="1">
          <mxGeometry relative="1" as="geometry" />
        </mxCell>
        <mxCell id="MDOAliKva9BKkH3c2uKR-43" value="NHI/NI" style="rhombus;whiteSpace=wrap;html=1;" parent="1" vertex="1">
          <mxGeometry x="-380" y="370" width="80" height="80" as="geometry" />
        </mxCell>
        <mxCell id="MDOAliKva9BKkH3c2uKR-53" style="edgeStyle=orthogonalEdgeStyle;rounded=0;orthogonalLoop=1;jettySize=auto;html=1;exitX=1;exitY=0.5;exitDx=0;exitDy=0;entryX=0;entryY=0.5;entryDx=0;entryDy=0;" parent="1" source="MDOAliKva9BKkH3c2uKR-44" target="MDOAliKva9BKkH3c2uKR-45" edge="1">
          <mxGeometry relative="1" as="geometry" />
        </mxCell>
        <mxCell id="MDOAliKva9BKkH3c2uKR-60" style="edgeStyle=orthogonalEdgeStyle;rounded=0;orthogonalLoop=1;jettySize=auto;html=1;exitX=0.5;exitY=1;exitDx=0;exitDy=0;entryX=0;entryY=0.5;entryDx=0;entryDy=0;entryPerimeter=0;" parent="1" source="MDOAliKva9BKkH3c2uKR-44" target="MDOAliKva9BKkH3c2uKR-58" edge="1">
          <mxGeometry relative="1" as="geometry" />
        </mxCell>
        <mxCell id="50Y8gKljsSLMcJeQ7fWH-4" value="" style="edgeStyle=orthogonalEdgeStyle;rounded=0;orthogonalLoop=1;jettySize=auto;html=1;" edge="1" parent="1" source="MDOAliKva9BKkH3c2uKR-44" target="50Y8gKljsSLMcJeQ7fWH-3">
          <mxGeometry relative="1" as="geometry" />
        </mxCell>
        <mxCell id="MDOAliKva9BKkH3c2uKR-44" value="Draft LI-1/LAPP/NPI/&lt;br&gt;MPP/SBP/LPHP/LP" style="rounded=1;whiteSpace=wrap;html=1;" parent="1" vertex="1">
          <mxGeometry x="-260" y="345" width="190" height="130" as="geometry" />
        </mxCell>
        <mxCell id="MDOAliKva9BKkH3c2uKR-54" style="edgeStyle=orthogonalEdgeStyle;rounded=0;orthogonalLoop=1;jettySize=auto;html=1;exitX=1;exitY=0.5;exitDx=0;exitDy=0;entryX=0;entryY=0.5;entryDx=0;entryDy=0;" parent="1" source="MDOAliKva9BKkH3c2uKR-45" target="MDOAliKva9BKkH3c2uKR-46" edge="1">
          <mxGeometry relative="1" as="geometry" />
        </mxCell>
        <mxCell id="MDOAliKva9BKkH3c2uKR-45" value="Penindakan?" style="rhombus;whiteSpace=wrap;html=1;" parent="1" vertex="1">
          <mxGeometry x="-20" y="370" width="80" height="80" as="geometry" />
        </mxCell>
        <mxCell id="MDOAliKva9BKkH3c2uKR-55" style="edgeStyle=orthogonalEdgeStyle;rounded=0;orthogonalLoop=1;jettySize=auto;html=1;exitX=1;exitY=0.5;exitDx=0;exitDy=0;entryX=0;entryY=0.5;entryDx=0;entryDy=0;" parent="1" source="MDOAliKva9BKkH3c2uKR-46" target="MDOAliKva9BKkH3c2uKR-48" edge="1">
          <mxGeometry relative="1" as="geometry" />
        </mxCell>
        <mxCell id="MDOAliKva9BKkH3c2uKR-61" style="edgeStyle=orthogonalEdgeStyle;rounded=0;orthogonalLoop=1;jettySize=auto;html=1;exitX=0.5;exitY=1;exitDx=0;exitDy=0;entryX=0.5;entryY=0;entryDx=0;entryDy=0;entryPerimeter=0;" parent="1" source="MDOAliKva9BKkH3c2uKR-46" target="MDOAliKva9BKkH3c2uKR-58" edge="1">
          <mxGeometry relative="1" as="geometry" />
        </mxCell>
        <mxCell id="50Y8gKljsSLMcJeQ7fWH-6" value="" style="edgeStyle=orthogonalEdgeStyle;rounded=0;orthogonalLoop=1;jettySize=auto;html=1;" edge="1" parent="1" source="MDOAliKva9BKkH3c2uKR-46" target="50Y8gKljsSLMcJeQ7fWH-5">
          <mxGeometry relative="1" as="geometry" />
        </mxCell>
        <mxCell id="MDOAliKva9BKkH3c2uKR-46" value="Input Data SBP dan&lt;br&gt;&amp;nbsp;Pelanggaran" style="shape=step;perimeter=stepPerimeter;whiteSpace=wrap;html=1;fixedSize=1;" parent="1" vertex="1">
          <mxGeometry x="130" y="350" width="220" height="120" as="geometry" />
        </mxCell>
        <mxCell id="MDOAliKva9BKkH3c2uKR-57" style="edgeStyle=orthogonalEdgeStyle;rounded=0;orthogonalLoop=1;jettySize=auto;html=1;exitX=1;exitY=0.5;exitDx=0;exitDy=0;entryX=0.5;entryY=1;entryDx=0;entryDy=0;" parent="1" source="MDOAliKva9BKkH3c2uKR-48" target="MDOAliKva9BKkH3c2uKR-56" edge="1">
          <mxGeometry relative="1" as="geometry" />
        </mxCell>
        <mxCell id="MDOAliKva9BKkH3c2uKR-62" style="edgeStyle=orthogonalEdgeStyle;rounded=0;orthogonalLoop=1;jettySize=auto;html=1;exitX=0.5;exitY=1;exitDx=0;exitDy=0;entryX=1;entryY=0;entryDx=0;entryDy=27.5;entryPerimeter=0;" parent="1" source="MDOAliKva9BKkH3c2uKR-48" target="MDOAliKva9BKkH3c2uKR-58" edge="1">
          <mxGeometry relative="1" as="geometry" />
        </mxCell>
        <mxCell id="50Y8gKljsSLMcJeQ7fWH-8" value="" style="edgeStyle=orthogonalEdgeStyle;rounded=0;orthogonalLoop=1;jettySize=auto;html=1;" edge="1" parent="1" source="MDOAliKva9BKkH3c2uKR-48" target="50Y8gKljsSLMcJeQ7fWH-7">
          <mxGeometry relative="1" as="geometry" />
        </mxCell>
        <mxCell id="MDOAliKva9BKkH3c2uKR-48" value="Draft LP Perkara/ LP Formal/ LP1 /SPLIT /LRP" style="rounded=1;whiteSpace=wrap;html=1;" parent="1" vertex="1">
          <mxGeometry x="430" y="345" width="190" height="130" as="geometry" />
        </mxCell>
        <mxCell id="MDOAliKva9BKkH3c2uKR-56" value="Selesai" style="ellipse;whiteSpace=wrap;html=1;" parent="1" vertex="1">
          <mxGeometry x="670" y="250" width="120" height="80" as="geometry" />
        </mxCell>
        <mxCell id="MDOAliKva9BKkH3c2uKR-64" style="edgeStyle=orthogonalEdgeStyle;rounded=0;orthogonalLoop=1;jettySize=auto;html=1;exitX=0.5;exitY=1;exitDx=0;exitDy=0;exitPerimeter=0;entryX=0.5;entryY=0;entryDx=0;entryDy=0;" parent="1" source="MDOAliKva9BKkH3c2uKR-58" target="MDOAliKva9BKkH3c2uKR-63" edge="1">
          <mxGeometry relative="1" as="geometry" />
        </mxCell>
        <mxCell id="MDOAliKva9BKkH3c2uKR-58" value="SIOSS" style="shape=cylinder3;whiteSpace=wrap;html=1;boundedLbl=1;backgroundOutline=1;size=15;" parent="1" vertex="1">
          <mxGeometry x="150" y="560" width="60" height="80" as="geometry" />
        </mxCell>
        <mxCell id="MDOAliKva9BKkH3c2uKR-68" style="edgeStyle=orthogonalEdgeStyle;rounded=0;orthogonalLoop=1;jettySize=auto;html=1;exitX=0;exitY=0.5;exitDx=0;exitDy=0;" parent="1" source="MDOAliKva9BKkH3c2uKR-63" target="MDOAliKva9BKkH3c2uKR-66" edge="1">
          <mxGeometry relative="1" as="geometry" />
        </mxCell>
        <mxCell id="MDOAliKva9BKkH3c2uKR-63" value="&lt;div style=&quot;text-align: justify&quot;&gt;&lt;span&gt;1. Database Berkas Intelijen&lt;/span&gt;&lt;/div&gt;&lt;div style=&quot;text-align: justify&quot;&gt;&lt;span&gt;2. Database Berkas Penindakan&lt;/span&gt;&lt;/div&gt;&lt;div style=&quot;text-align: justify&quot;&gt;&lt;span&gt;3. Database Berkas Penyidikan&lt;/span&gt;&lt;/div&gt;&lt;div style=&quot;text-align: justify&quot;&gt;&lt;span&gt;4. Peta Rawan Penindakan&lt;/span&gt;&lt;/div&gt;&lt;div style=&quot;text-align: justify&quot;&gt;&lt;span&gt;5. Profil Intelijen&amp;nbsp;&lt;/span&gt;&lt;/div&gt;" style="shape=process;whiteSpace=wrap;html=1;backgroundOutline=1;align=left;" parent="1" vertex="1">
          <mxGeometry x="25" y="700" width="310" height="130" as="geometry" />
        </mxCell>
        <mxCell id="MDOAliKva9BKkH3c2uKR-87" style="edgeStyle=orthogonalEdgeStyle;rounded=0;orthogonalLoop=1;jettySize=auto;html=1;exitX=0.5;exitY=1;exitDx=0;exitDy=0;entryX=1;entryY=0.3333333333333333;entryDx=0;entryDy=0;entryPerimeter=0;" parent="1" source="MDOAliKva9BKkH3c2uKR-66" target="MDOAliKva9BKkH3c2uKR-83" edge="1">
          <mxGeometry relative="1" as="geometry" />
        </mxCell>
        <mxCell id="MDOAliKva9BKkH3c2uKR-66" value="Permintaan Laporan Oleh Kanwil" style="shape=parallelogram;perimeter=parallelogramPerimeter;whiteSpace=wrap;html=1;fixedSize=1;" parent="1" vertex="1">
          <mxGeometry x="-280" y="717.5" width="210" height="95" as="geometry" />
        </mxCell>
        <mxCell id="MDOAliKva9BKkH3c2uKR-100" style="edgeStyle=orthogonalEdgeStyle;rounded=0;orthogonalLoop=1;jettySize=auto;html=1;exitX=0;exitY=0.5;exitDx=0;exitDy=0;exitPerimeter=0;entryX=0.5;entryY=0;entryDx=0;entryDy=0;" parent="1" source="MDOAliKva9BKkH3c2uKR-67" target="MDOAliKva9BKkH3c2uKR-70" edge="1">
          <mxGeometry relative="1" as="geometry" />
        </mxCell>
        <mxCell id="MDOAliKva9BKkH3c2uKR-101" style="edgeStyle=orthogonalEdgeStyle;rounded=0;orthogonalLoop=1;jettySize=auto;html=1;entryX=1;entryY=0.5;entryDx=0;entryDy=0;" parent="1" source="MDOAliKva9BKkH3c2uKR-67" target="MDOAliKva9BKkH3c2uKR-90" edge="1">
          <mxGeometry relative="1" as="geometry" />
        </mxCell>
        <mxCell id="MDOAliKva9BKkH3c2uKR-103" style="edgeStyle=orthogonalEdgeStyle;rounded=0;orthogonalLoop=1;jettySize=auto;html=1;entryX=1;entryY=0.75;entryDx=0;entryDy=0;exitX=0.5;exitY=1;exitDx=0;exitDy=0;exitPerimeter=0;" parent="1" source="MDOAliKva9BKkH3c2uKR-67" target="MDOAliKva9BKkH3c2uKR-97" edge="1">
          <mxGeometry relative="1" as="geometry">
            <mxPoint x="-540" y="1060" as="targetPoint" />
            <mxPoint x="-470" y="980" as="sourcePoint" />
            <Array as="points">
              <mxPoint x="-470" y="1041" />
            </Array>
          </mxGeometry>
        </mxCell>
        <mxCell id="MDOAliKva9BKkH3c2uKR-104" style="edgeStyle=orthogonalEdgeStyle;rounded=0;orthogonalLoop=1;jettySize=auto;html=1;exitX=0.5;exitY=1;exitDx=0;exitDy=0;exitPerimeter=0;entryX=1;entryY=0.5;entryDx=0;entryDy=0;" parent="1" source="MDOAliKva9BKkH3c2uKR-67" target="MDOAliKva9BKkH3c2uKR-99" edge="1">
          <mxGeometry relative="1" as="geometry">
            <Array as="points">
              <mxPoint x="-470" y="1110" />
            </Array>
          </mxGeometry>
        </mxCell>
        <mxCell id="MDOAliKva9BKkH3c2uKR-106" style="edgeStyle=orthogonalEdgeStyle;rounded=0;orthogonalLoop=1;jettySize=auto;html=1;exitX=0;exitY=1;exitDx=0;exitDy=-15;exitPerimeter=0;entryX=1;entryY=0.75;entryDx=0;entryDy=0;" parent="1" source="MDOAliKva9BKkH3c2uKR-67" target="MDOAliKva9BKkH3c2uKR-94" edge="1">
          <mxGeometry relative="1" as="geometry" />
        </mxCell>
        <mxCell id="MDOAliKva9BKkH3c2uKR-67" value="SIOSS" style="shape=cylinder3;whiteSpace=wrap;html=1;boundedLbl=1;backgroundOutline=1;size=15;" parent="1" vertex="1">
          <mxGeometry x="-500" y="890" width="60" height="80" as="geometry" />
        </mxCell>
        <mxCell id="MDOAliKva9BKkH3c2uKR-70" value="Download/Dasboard Kakanwil/Kabid" style="shape=parallelogram;perimeter=parallelogramPerimeter;whiteSpace=wrap;html=1;fixedSize=1;" parent="1" vertex="1">
          <mxGeometry x="-740" y="752.5" width="120" height="60" as="geometry" />
        </mxCell>
        <mxCell id="MDOAliKva9BKkH3c2uKR-74" style="edgeStyle=orthogonalEdgeStyle;rounded=0;orthogonalLoop=1;jettySize=auto;html=1;exitX=1;exitY=0.5;exitDx=0;exitDy=0;" parent="1" source="MDOAliKva9BKkH3c2uKR-72" edge="1">
          <mxGeometry relative="1" as="geometry">
            <mxPoint x="-120" y="-222.4117647058822" as="targetPoint" />
          </mxGeometry>
        </mxCell>
        <mxCell id="MDOAliKva9BKkH3c2uKR-72" value="Permintaan Laporan Oleh Kanwil" style="shape=parallelogram;perimeter=parallelogramPerimeter;whiteSpace=wrap;html=1;fixedSize=1;" parent="1" vertex="1">
          <mxGeometry x="-400" y="-270" width="210" height="95" as="geometry" />
        </mxCell>
        <mxCell id="MDOAliKva9BKkH3c2uKR-80" style="edgeStyle=orthogonalEdgeStyle;rounded=0;orthogonalLoop=1;jettySize=auto;html=1;exitX=1;exitY=0.5;exitDx=0;exitDy=0;entryX=0;entryY=0.5;entryDx=0;entryDy=0;" parent="1" source="MDOAliKva9BKkH3c2uKR-75" target="MDOAliKva9BKkH3c2uKR-76" edge="1">
          <mxGeometry relative="1" as="geometry" />
        </mxCell>
        <mxCell id="MDOAliKva9BKkH3c2uKR-75" value="Draft Laporan" style="rounded=1;whiteSpace=wrap;html=1;" parent="1" vertex="1">
          <mxGeometry x="-110" y="-252" width="120" height="60" as="geometry" />
        </mxCell>
        <mxCell id="MDOAliKva9BKkH3c2uKR-79" style="edgeStyle=orthogonalEdgeStyle;rounded=0;orthogonalLoop=1;jettySize=auto;html=1;exitX=0.5;exitY=0;exitDx=0;exitDy=0;" parent="1" source="MDOAliKva9BKkH3c2uKR-76" target="MDOAliKva9BKkH3c2uKR-77" edge="1">
          <mxGeometry relative="1" as="geometry" />
        </mxCell>
        <mxCell id="MDOAliKva9BKkH3c2uKR-76" value="Terima Laporan" style="shape=parallelogram;perimeter=parallelogramPerimeter;whiteSpace=wrap;html=1;fixedSize=1;" parent="1" vertex="1">
          <mxGeometry x="74" y="-252.5" width="120" height="60" as="geometry" />
        </mxCell>
        <mxCell id="MDOAliKva9BKkH3c2uKR-82" style="edgeStyle=orthogonalEdgeStyle;rounded=0;orthogonalLoop=1;jettySize=auto;html=1;exitX=0.5;exitY=0.5;exitDx=0;exitDy=0;exitPerimeter=0;" parent="1" source="MDOAliKva9BKkH3c2uKR-77" target="MDOAliKva9BKkH3c2uKR-81" edge="1">
          <mxGeometry relative="1" as="geometry" />
        </mxCell>
        <mxCell id="MDOAliKva9BKkH3c2uKR-77" value="Kanwil" style="shape=umlActor;verticalLabelPosition=bottom;verticalAlign=top;html=1;outlineConnect=0;" parent="1" vertex="1">
          <mxGeometry x="119" y="-410" width="30" height="60" as="geometry" />
        </mxCell>
        <mxCell id="MDOAliKva9BKkH3c2uKR-81" value="Arsip Drive" style="shape=cylinder3;whiteSpace=wrap;html=1;boundedLbl=1;backgroundOutline=1;size=15;" parent="1" vertex="1">
          <mxGeometry x="275" y="-420" width="60" height="80" as="geometry" />
        </mxCell>
        <mxCell id="MDOAliKva9BKkH3c2uKR-88" style="edgeStyle=orthogonalEdgeStyle;rounded=0;orthogonalLoop=1;jettySize=auto;html=1;exitX=0;exitY=0.3333333333333333;exitDx=0;exitDy=0;exitPerimeter=0;entryX=1;entryY=0.5;entryDx=0;entryDy=0;entryPerimeter=0;" parent="1" source="MDOAliKva9BKkH3c2uKR-83" target="MDOAliKva9BKkH3c2uKR-67" edge="1">
          <mxGeometry relative="1" as="geometry" />
        </mxCell>
        <mxCell id="MDOAliKva9BKkH3c2uKR-83" value="Kanwil" style="shape=umlActor;verticalLabelPosition=bottom;verticalAlign=top;html=1;outlineConnect=0;" parent="1" vertex="1">
          <mxGeometry x="-355" y="910" width="30" height="60" as="geometry" />
        </mxCell>
        <mxCell id="MDOAliKva9BKkH3c2uKR-90" value="Pengolahan Data Penindakan" style="shape=parallelogram;perimeter=parallelogramPerimeter;whiteSpace=wrap;html=1;fixedSize=1;" parent="1" vertex="1">
          <mxGeometry x="-750" y="840" width="120" height="60" as="geometry" />
        </mxCell>
        <mxCell id="MDOAliKva9BKkH3c2uKR-94" value="Profil Intelijen" style="shape=parallelogram;perimeter=parallelogramPerimeter;whiteSpace=wrap;html=1;fixedSize=1;" parent="1" vertex="1">
          <mxGeometry x="-760" y="920" width="120" height="60" as="geometry" />
        </mxCell>
        <mxCell id="MDOAliKva9BKkH3c2uKR-97" value="PSA/ Peta Rawan" style="shape=parallelogram;perimeter=parallelogramPerimeter;whiteSpace=wrap;html=1;fixedSize=1;" parent="1" vertex="1">
          <mxGeometry x="-765" y="1000" width="120" height="60" as="geometry" />
        </mxCell>
        <mxCell id="MDOAliKva9BKkH3c2uKR-99" value="Data Laporan IKU" style="shape=parallelogram;perimeter=parallelogramPerimeter;whiteSpace=wrap;html=1;fixedSize=1;" parent="1" vertex="1">
          <mxGeometry x="-760" y="1080" width="120" height="60" as="geometry" />
        </mxCell>
        <mxCell id="50Y8gKljsSLMcJeQ7fWH-1" value="Cetak&amp;nbsp;" style="whiteSpace=wrap;html=1;rounded=1;" vertex="1" parent="1">
          <mxGeometry x="-540" y="240" width="120" height="60" as="geometry" />
        </mxCell>
        <mxCell id="50Y8gKljsSLMcJeQ7fWH-3" value="Cetak" style="whiteSpace=wrap;html=1;rounded=1;" vertex="1" parent="1">
          <mxGeometry x="-225" y="230" width="120" height="60" as="geometry" />
        </mxCell>
        <mxCell id="50Y8gKljsSLMcJeQ7fWH-5" value="APP Penindakan" style="whiteSpace=wrap;html=1;" vertex="1" parent="1">
          <mxGeometry x="180" y="240" width="120" height="60" as="geometry" />
        </mxCell>
        <mxCell id="50Y8gKljsSLMcJeQ7fWH-7" value="Cetak" style="whiteSpace=wrap;html=1;rounded=1;" vertex="1" parent="1">
          <mxGeometry x="465" y="210" width="120" height="80" as="geometry" />
        </mxCell>
      </root>
    </mxGraphModel>
  </diagram>
</mxfile>
